<?xml version="1.0" encoding="UTF-8" standalone="no"?>
<!-- Created with Inkscape (http://www.inkscape.org/) -->

<svg
   width="84.575356mm"
   height="62.443047mm"
   viewBox="0 0 84.575356 62.443047"
   version="1.1"
   id="svg1"
   xml:space="preserve"
   xmlns="http://www.w3.org/2000/svg"
   xmlns:svg="http://www.w3.org/2000/svg"
   xmlns:rdf="http://www.w3.org/1999/02/22-rdf-syntax-ns#"
   xmlns:cc="http://creativecommons.org/ns#"
   xmlns:dc="http://purl.org/dc/elements/1.1/"><defs
     id="defs1" /><metadata
     id="metadata1"><rdf:RDF><cc:Work
         rdf:about=""><dc:format>image/svg+xml</dc:format><dc:type
           rdf:resource="http://purl.org/dc/dcmitype/StillImage" /></cc:Work></rdf:RDF></metadata><g
     id="g1"
     transform="matrix(0.26458333,0,0,0.26458334,-0.0010174,-0.00213753)"><path
       id="path2"
       d="M 279.88266,211.88266 H 39.777066 c -3.444267,0 -6.792133,-1.136 -9.5244,-3.23333 -6.8548,-5.26 -8.148533,-15.08133 -2.888133,-21.936 L 147.41733,30.257335 c 0.832,-1.084 1.804,-2.056 2.888,-2.888 6.85467,-5.261333 16.67733,-3.968 21.93733,2.888 l 120.052,156.455995 c 2.096,2.73173 3.23333,6.08027 3.23333,9.524 0,8.64 -7.004,15.64533 -15.64533,15.64533 z m 31.03067,-39.45733 -120.052,-156.454661 c -13.15067,-17.1386664 -37.70533,-20.3706663 -54.84267,-7.22 -2.71186,2.081333 -5.13893,4.508 -7.2208,7.22 L 8.7458398,172.42533 c -13.150013,17.13853 -9.9177144,41.6932 7.2202932,54.84269 6.8308,5.24271 15.200533,8.08385 23.810933,8.08385 H 279.88266 c 21.60267,0 39.11467,-17.51201 39.11467,-39.11454 0,-8.60947 -2.84134,-16.98027 -8.084,-23.812"
       style="fill:#231f20;fill-opacity:1;fill-rule:nonzero;stroke:none;stroke-width:0.133333" /><path
       id="path3"
       d="M 279.88266,211.88266 H 39.777066 c -3.444267,0 -6.792133,-1.136 -9.5244,-3.23333 -6.8548,-5.26 -8.148533,-15.08133 -2.888133,-21.936 L 147.41733,30.257335 c 0.832,-1.084 1.804,-2.056 2.888,-2.888 6.85467,-5.261333 16.67733,-3.968 21.93733,2.888 l 120.052,156.455995 c 2.096,2.73173 3.23333,6.08027 3.23333,9.524 0,8.64 -7.004,15.64533 -15.64533,15.64533 z m 31.03067,-39.45733 -120.052,-156.454661 c -13.15067,-17.1386664 -37.70533,-20.3706663 -54.84267,-7.22 -2.71186,2.081333 -5.13893,4.508 -7.2208,7.22 L 8.7458398,172.42533 c -13.150013,17.13853 -9.9177144,41.6932 7.2202932,54.84269 6.8308,5.24271 15.200533,8.08385 23.810933,8.08385 H 279.88266 c 21.60267,0 39.11467,-17.51201 39.11467,-39.11454 0,-8.60947 -2.84134,-16.98027 -8.084,-23.812 z"
       style="fill:none;stroke:#211d1d;stroke-width:1.32283;stroke-linecap:round;stroke-linejoin:round;stroke-miterlimit:500;stroke-dasharray:none;stroke-opacity:1" /><path
       id="path4"
       d="m 217.12666,107.39453 c 3.05467,-3.05466 3.05467,-8.007863 0,-11.06253 -3.056,-3.054666 -8.00933,-3.054666 -11.064,0 l -46.66133,46.6616 c -0.48533,0.4848 -1.09067,0.83427 -1.75333,1.01187 -2.08667,0.56 -4.23067,-0.67854 -4.78934,-2.7656 l -5.26133,-19.63174 c -1.11867,-4.174 -5.40667,-6.65 -9.58,-5.53173 -4.17333,1.11813 -6.65013,5.40827 -5.5324,9.5812 l 9.36973,34.96507 c 1.484,5.54373 7.18267,8.83439 12.72667,7.34946 1.76133,-0.47333 3.368,-1.4 4.65867,-2.69053 l 57.88666,-57.88707"
       style="fill:#231f20;fill-opacity:1;fill-rule:nonzero;stroke:none;stroke-width:0.133333" /><path
       id="path5"
       d="m 217.12666,107.39453 c 3.05467,-3.05466 3.05467,-8.007863 0,-11.06253 -3.056,-3.054666 -8.00933,-3.054666 -11.064,0 l -46.66133,46.6616 c -0.48533,0.4848 -1.09067,0.83427 -1.75333,1.01187 -2.08667,0.56 -4.23067,-0.67854 -4.78934,-2.7656 l -5.26133,-19.63174 c -1.11867,-4.174 -5.40667,-6.65 -9.58,-5.53173 -4.17333,1.11813 -6.65013,5.40827 -5.5324,9.5812 l 9.36973,34.96507 c 1.484,5.54373 7.18267,8.83439 12.72667,7.34946 1.76133,-0.47333 3.368,-1.4 4.65867,-2.69053 z"
       style="fill:none;stroke:#211d1d;stroke-width:1.32283;stroke-linecap:round;stroke-linejoin:round;stroke-miterlimit:500;stroke-dasharray:none;stroke-opacity:1" /><path
       id="path6"
       d="m 183.90933,70.874667 c -36.53733,-13.299999 -76.94,5.54 -90.239066,42.079333 -13.298399,36.538 5.540667,76.94053 42.079066,90.2396 36.53867,13.2984 76.94133,-5.54174 90.24,-42.07867 2.808,-7.7188 4.24533,-15.86666 4.24533,-24.08186 0,-4.31974 -3.50267,-7.82187 -7.82267,-7.82187 -4.32,0 -7.82266,3.50213 -7.82266,7.82187 0,6.38813 -1.11734,12.7272 -3.30267,18.72973 -10.34267,28.41986 -41.76666,43.07186 -70.18533,32.7276 -28.4196,-10.34374 -43.072666,-41.76667 -32.72893,-70.1864 10.34373,-28.418666 41.76626,-43.070666 70.18626,-32.728 4.06,1.477334 8.54934,-0.614666 10.02667,-4.674666 1.47733,-4.06 -0.616,-8.549333 -4.676,-10.026667"
       style="fill:#231f20;fill-opacity:1;fill-rule:nonzero;stroke:none;stroke-width:0.133333" /><path
       id="path7"
       d="m 183.90933,70.874667 c -36.53733,-13.299999 -76.94,5.54 -90.239066,42.079333 -13.298399,36.538 5.540667,76.94053 42.079066,90.2396 36.53867,13.2984 76.94133,-5.54174 90.24,-42.07867 2.808,-7.7188 4.24533,-15.86666 4.24533,-24.08186 0,-4.31974 -3.50267,-7.82187 -7.82267,-7.82187 -4.32,0 -7.82266,3.50213 -7.82266,7.82187 0,6.38813 -1.11734,12.7272 -3.30267,18.72973 -10.34267,28.41986 -41.76666,43.07186 -70.18533,32.7276 -28.4196,-10.34374 -43.072666,-41.76667 -32.72893,-70.1864 10.34373,-28.418666 41.76626,-43.070666 70.18626,-32.728 4.06,1.477334 8.54934,-0.614666 10.02667,-4.674666 1.47733,-4.06 -0.616,-8.549333 -4.676,-10.026667 z"
       style="fill:none;stroke:#211d1d;stroke-width:1.32283;stroke-linecap:round;stroke-linejoin:round;stroke-miterlimit:500;stroke-dasharray:none;stroke-opacity:1" /></g></svg>
